<?xml version="1.0" encoding="UTF-8"?>
<svg width="34px" height="16px" viewBox="0 0 34 16" version="1.1" xmlns="http://www.w3.org/2000/svg" xmlns:xlink="http://www.w3.org/1999/xlink">
    <!-- Generator: Sketch 53.2 (72643) - https://sketchapp.com -->
    <title>menu-to-close-2</title>
    <desc>Created with Sketch.</desc>
    <defs>
        <path d="M3,5.5 C1.61928813,5.5 0.5,4.38071187 0.5,3 C0.5,1.61928813 1.61928813,0.5 3,0.5 L31,0.5 C32.3807119,0.5 33.5,1.61928813 33.5,3 C33.5,4.38071187 32.3807119,5.5 31,5.5 L3,5.5 Z M3,15.5 C1.61928813,15.5 0.5,14.3807119 0.5,13 C0.5,11.6192881 1.61928813,10.5 3,10.5 L31,10.5 C32.3807119,10.5 33.5,11.6192881 33.5,13 C33.5,14.3807119 32.3807119,15.5 31,15.5 L3,15.5 Z" id="path-1"></path>
    </defs>
    <g id="00_LandingPage" stroke="none" stroke-width="1" fill="none" fill-rule="evenodd">
        <g id="LandingPage-Desktop-1440+" transform="translate(-1342.000000, -61.000000)">
            <g id="Header" transform="translate(64.000000, 58.000000)">
                <g id="menu-to-close-2" transform="translate(1278.000000, 3.000000)">
                    <mask id="mask-2" fill="white">
                        <use xlink:href="#path-1"></use>
                    </mask>
                    <use id="Combined-Shape" fill="#E53935" fill-rule="nonzero" xlink:href="#path-1"></use>
                    <g id="Colors/White" mask="url(#mask-2)" fill="#FFFFFF">
                        <rect id="Rectangle-Copy-5" x="0" y="0" width="34" height="26"></rect>
                    </g>
                </g>
            </g>
        </g>
    </g>
</svg>